Normalized EMG Linear Envelopes
nRows=65
nColumns=17

endheader
time	        VM	        VL	        RF	       GRA	        TA	   ADDLONG	   SEMIMEM	      BFLH	        GM	        GL	       TFL	   GLUTMAX	   GLUTMED	      PIRI	    OBTINT	        QF	
2.5015	  0.333995	  0.474295	  0.038637	  0.207694	  0.191572	  0.051028	  0.354102	  0.482928	  0.393630	  0.124546	  0.026834	  0.392995	  0.208644	  0.585237	  0.525282	  1.082589	
2.502	  0.336874	  0.478010	  0.039037	  0.206882	  0.189431	  0.051311	  0.351370	  0.481365	  0.393886	  0.126386	  0.027195	  0.394665	  0.208679	  0.585242	  0.527023	  1.088845	
2.5025	  0.339746	  0.481659	  0.039434	  0.206100	  0.187300	  0.051597	  0.348671	  0.479835	  0.394164	  0.128258	  0.027557	  0.396265	  0.208724	  0.585193	  0.528709	  1.094992	
2.503	  0.342608	  0.485239	  0.039828	  0.205348	  0.185181	  0.051885	  0.346007	  0.478338	  0.394466	  0.130162	  0.027920	  0.397792	  0.208777	  0.585090	  0.530336	  1.101026	
2.5035	  0.345458	  0.488749	  0.040219	  0.204626	  0.183075	  0.052176	  0.343380	  0.476878	  0.394792	  0.132099	  0.028285	  0.399244	  0.208840	  0.584934	  0.531905	  1.106943	
2.504	  0.348297	  0.492184	  0.040606	  0.203934	  0.180982	  0.052470	  0.340791	  0.475456	  0.395143	  0.134067	  0.028651	  0.400620	  0.208913	  0.584724	  0.533415	  1.112738	
2.5045	  0.351121	  0.495543	  0.040989	  0.203271	  0.178902	  0.052766	  0.338240	  0.474076	  0.395520	  0.136067	  0.029018	  0.401920	  0.208995	  0.584461	  0.534864	  1.118405	
2.505	  0.353931	  0.498822	  0.041369	  0.202639	  0.176836	  0.053063	  0.335731	  0.472738	  0.395923	  0.138099	  0.029386	  0.403140	  0.209088	  0.584145	  0.536252	  1.123940	
2.5055	  0.356724	  0.502019	  0.041745	  0.202035	  0.174785	  0.053363	  0.333262	  0.471445	  0.396354	  0.140163	  0.029756	  0.404280	  0.209190	  0.583775	  0.537580	  1.129337	
2.506	  0.359499	  0.505133	  0.042117	  0.201461	  0.172749	  0.053664	  0.330836	  0.470200	  0.396814	  0.142258	  0.030126	  0.405339	  0.209303	  0.583352	  0.538846	  1.134591	
2.5065	  0.362257	  0.508160	  0.042485	  0.200916	  0.170729	  0.053965	  0.328454	  0.469002	  0.397302	  0.144384	  0.030498	  0.406316	  0.209426	  0.582876	  0.540051	  1.139698	
2.507	  0.364995	  0.511100	  0.042848	  0.200400	  0.168725	  0.054268	  0.326118	  0.467856	  0.397820	  0.146541	  0.030871	  0.407209	  0.209558	  0.582346	  0.541195	  1.144653	
2.5075	  0.367712	  0.513950	  0.043208	  0.199913	  0.166738	  0.054572	  0.323829	  0.466761	  0.398368	  0.148729	  0.031245	  0.408019	  0.209701	  0.581762	  0.542278	  1.149451	
2.508	  0.370409	  0.516711	  0.043563	  0.199453	  0.164769	  0.054875	  0.321587	  0.465720	  0.398946	  0.150947	  0.031620	  0.408744	  0.209854	  0.581124	  0.543298	  1.154088	
2.5085	  0.373084	  0.519380	  0.043914	  0.199021	  0.162817	  0.055179	  0.319396	  0.464735	  0.399556	  0.153195	  0.031996	  0.409385	  0.210016	  0.580432	  0.544256	  1.158560	
2.509	  0.375736	  0.521956	  0.044261	  0.198616	  0.160884	  0.055482	  0.317256	  0.463806	  0.400198	  0.155472	  0.032373	  0.409941	  0.210188	  0.579685	  0.545152	  1.162862	
2.5095	  0.378364	  0.524439	  0.044603	  0.198238	  0.158969	  0.055785	  0.315168	  0.462935	  0.400872	  0.157780	  0.032751	  0.410411	  0.210369	  0.578882	  0.545984	  1.166991	
2.51	  0.380969	  0.526827	  0.044940	  0.197887	  0.157074	  0.056087	  0.313135	  0.462123	  0.401579	  0.160116	  0.033129	  0.410797	  0.210559	  0.578023	  0.546753	  1.170944	
2.5105	  0.383549	  0.529119	  0.045272	  0.197561	  0.155198	  0.056387	  0.311158	  0.461372	  0.402320	  0.162481	  0.033509	  0.411097	  0.210758	  0.577108	  0.547459	  1.174718	
2.511	  0.386103	  0.531314	  0.045600	  0.197260	  0.153343	  0.056686	  0.309238	  0.460682	  0.403095	  0.164876	  0.033889	  0.411311	  0.210965	  0.576136	  0.548101	  1.178312	
2.5115	  0.388632	  0.533411	  0.045923	  0.196984	  0.151508	  0.056983	  0.307377	  0.460055	  0.403905	  0.167298	  0.034270	  0.411439	  0.211181	  0.575105	  0.548678	  1.181723	
2.512	  0.391133	  0.535410	  0.046241	  0.196732	  0.149694	  0.057278	  0.305577	  0.459491	  0.404750	  0.169749	  0.034651	  0.411480	  0.211406	  0.574015	  0.549191	  1.184950	
2.5125	  0.393607	  0.537311	  0.046554	  0.196504	  0.147902	  0.057571	  0.303838	  0.458991	  0.405632	  0.172228	  0.035034	  0.411435	  0.211640	  0.572864	  0.549638	  1.187991	
2.513	  0.396053	  0.539112	  0.046862	  0.196298	  0.146131	  0.057863	  0.302162	  0.458556	  0.406550	  0.174735	  0.035417	  0.411303	  0.211883	  0.571652	  0.550019	  1.190847	
2.5135	  0.398471	  0.540815	  0.047165	  0.196116	  0.144383	  0.058151	  0.300551	  0.458186	  0.407506	  0.177269	  0.035800	  0.411086	  0.212136	  0.570377	  0.550333	  1.193515	
2.514	  0.400858	  0.542419	  0.047462	  0.195955	  0.142658	  0.058438	  0.299005	  0.457882	  0.408499	  0.179830	  0.036185	  0.410783	  0.212398	  0.569037	  0.550579	  1.195995	
2.5145	  0.403216	  0.543925	  0.047754	  0.195816	  0.140956	  0.058721	  0.297525	  0.457645	  0.409530	  0.182419	  0.036570	  0.410396	  0.212669	  0.567632	  0.550757	  1.198288	
2.515	  0.405542	  0.545334	  0.048041	  0.195699	  0.139277	  0.059002	  0.296112	  0.457474	  0.410600	  0.185035	  0.036956	  0.409926	  0.212951	  0.566160	  0.550868	  1.200392	
2.5155	  0.407837	  0.546647	  0.048322	  0.195603	  0.137621	  0.059280	  0.294768	  0.457370	  0.411708	  0.187678	  0.037343	  0.409374	  0.213243	  0.564621	  0.550910	  1.202306	
2.516	  0.410100	  0.547864	  0.048597	  0.195528	  0.135989	  0.059555	  0.293494	  0.457333	  0.412854	  0.190349	  0.037730	  0.408740	  0.213544	  0.563016	  0.550886	  1.204031	
2.5165	  0.412330	  0.548986	  0.048867	  0.195474	  0.134382	  0.059827	  0.292289	  0.457363	  0.414039	  0.193046	  0.038118	  0.408026	  0.213855	  0.561344	  0.550794	  1.205564	
2.517	  0.414527	  0.550013	  0.049131	  0.195440	  0.132798	  0.060096	  0.291156	  0.457460	  0.415263	  0.195771	  0.038507	  0.407232	  0.214177	  0.559606	  0.550637	  1.206904	
2.5175	  0.416690	  0.550947	  0.049390	  0.195427	  0.131240	  0.060361	  0.290094	  0.457624	  0.416524	  0.198522	  0.038896	  0.406360	  0.214508	  0.557803	  0.550416	  1.208051	
2.518	  0.418819	  0.551787	  0.049643	  0.195433	  0.129706	  0.060623	  0.289104	  0.457854	  0.417823	  0.201300	  0.039285	  0.405409	  0.214848	  0.555935	  0.550133	  1.209001	
2.5185	  0.420912	  0.552534	  0.049891	  0.195459	  0.128197	  0.060882	  0.288186	  0.458151	  0.419160	  0.204105	  0.039675	  0.404382	  0.215199	  0.554002	  0.549790	  1.209754	
2.519	  0.422969	  0.553189	  0.050133	  0.195505	  0.126715	  0.061138	  0.287342	  0.458514	  0.420533	  0.206936	  0.040065	  0.403278	  0.215559	  0.552007	  0.549388	  1.210307	
2.5195	  0.424988	  0.553753	  0.050371	  0.195571	  0.125258	  0.061390	  0.286571	  0.458942	  0.421943	  0.209792	  0.040456	  0.402100	  0.215928	  0.549950	  0.548930	  1.210659	
2.52	  0.426969	  0.554225	  0.050603	  0.195656	  0.123827	  0.061640	  0.285874	  0.459435	  0.423388	  0.212674	  0.040846	  0.400848	  0.216307	  0.547833	  0.548419	  1.210808	
2.5205	  0.428911	  0.554608	  0.050831	  0.195760	  0.122422	  0.061886	  0.285251	  0.459992	  0.424867	  0.215582	  0.041237	  0.399525	  0.216696	  0.545658	  0.547856	  1.210752	
2.521	  0.430811	  0.554901	  0.051054	  0.195884	  0.121045	  0.062129	  0.284702	  0.460612	  0.426381	  0.218513	  0.041628	  0.398131	  0.217094	  0.543427	  0.547243	  1.210490	
2.5215	  0.432670	  0.555105	  0.051273	  0.196026	  0.119694	  0.062370	  0.284227	  0.461294	  0.427929	  0.221469	  0.042018	  0.396670	  0.217501	  0.541140	  0.546583	  1.210020	
2.522	  0.434485	  0.555222	  0.051487	  0.196187	  0.118370	  0.062608	  0.283826	  0.462038	  0.429510	  0.224448	  0.042408	  0.395143	  0.217917	  0.538800	  0.545878	  1.209343	
2.5225	  0.436255	  0.555252	  0.051697	  0.196366	  0.117073	  0.062842	  0.283499	  0.462842	  0.431125	  0.227451	  0.042798	  0.393553	  0.218342	  0.536407	  0.545131	  1.208458	
2.523	  0.437979	  0.555196	  0.051903	  0.196563	  0.115804	  0.063074	  0.283245	  0.463704	  0.432771	  0.230475	  0.043187	  0.391901	  0.218776	  0.533965	  0.544342	  1.207365	
2.5235	  0.439655	  0.555054	  0.052105	  0.196778	  0.114562	  0.063303	  0.283065	  0.464624	  0.434449	  0.233522	  0.043576	  0.390190	  0.219218	  0.531473	  0.543515	  1.206066	
2.524	  0.441281	  0.554828	  0.052304	  0.197010	  0.113347	  0.063530	  0.282959	  0.465600	  0.436159	  0.236590	  0.043964	  0.388422	  0.219668	  0.528936	  0.542652	  1.204560	
2.5245	  0.442856	  0.554518	  0.052498	  0.197258	  0.112160	  0.063753	  0.282925	  0.466631	  0.437899	  0.239679	  0.044350	  0.386597	  0.220125	  0.526354	  0.541755	  1.202848	
2.525	  0.444378	  0.554124	  0.052689	  0.197522	  0.111001	  0.063973	  0.282965	  0.467714	  0.439670	  0.242787	  0.044736	  0.384720	  0.220590	  0.523730	  0.540826	  1.200930	
2.5255	  0.445845	  0.553648	  0.052877	  0.197802	  0.109870	  0.064190	  0.283076	  0.468849	  0.441471	  0.245915	  0.045121	  0.382790	  0.221062	  0.521064	  0.539867	  1.198807	
2.526	  0.447255	  0.553090	  0.053061	  0.198096	  0.108767	  0.064404	  0.283259	  0.470033	  0.443302	  0.249061	  0.045504	  0.380810	  0.221540	  0.518360	  0.538881	  1.196481	
2.5265	  0.448607	  0.552449	  0.053242	  0.198405	  0.107692	  0.064615	  0.283513	  0.471264	  0.445163	  0.252225	  0.045885	  0.378782	  0.222024	  0.515617	  0.537870	  1.193952	
2.527	  0.449898	  0.551727	  0.053420	  0.198728	  0.106645	  0.064823	  0.283838	  0.472541	  0.447055	  0.255405	  0.046265	  0.376709	  0.222514	  0.512839	  0.536835	  1.191222	
2.5275	  0.451127	  0.550924	  0.053595	  0.199064	  0.105626	  0.065028	  0.284233	  0.473860	  0.448976	  0.258601	  0.046643	  0.374591	  0.223010	  0.510026	  0.535780	  1.188292	
2.528	  0.452292	  0.550042	  0.053767	  0.199414	  0.104635	  0.065228	  0.284697	  0.475220	  0.450927	  0.261812	  0.047018	  0.372432	  0.223511	  0.507181	  0.534705	  1.185163	
2.5285	  0.453391	  0.549080	  0.053937	  0.199776	  0.103672	  0.065426	  0.285229	  0.476618	  0.452908	  0.265036	  0.047392	  0.370233	  0.224016	  0.504304	  0.533613	  1.181835	
2.529	  0.454423	  0.548041	  0.054105	  0.200149	  0.102736	  0.065620	  0.285829	  0.478051	  0.454918	  0.268273	  0.047763	  0.367998	  0.224526	  0.501396	  0.532505	  1.178309	
2.5295	  0.455385	  0.546925	  0.054270	  0.200535	  0.101829	  0.065810	  0.286496	  0.479518	  0.456957	  0.271521	  0.048131	  0.365727	  0.225039	  0.498461	  0.531385	  1.174587	
2.53	  0.456278	  0.545733	  0.054433	  0.200931	  0.100948	  0.065996	  0.287229	  0.481013	  0.459024	  0.274779	  0.048497	  0.363423	  0.225555	  0.495498	  0.530253	  1.170670	
2.5305	  0.457098	  0.544468	  0.054594	  0.201338	  0.100096	  0.066178	  0.288027	  0.482536	  0.461119	  0.278046	  0.048859	  0.361089	  0.226073	  0.492510	  0.529111	  1.166560	
2.531	  0.457846	  0.543130	  0.054753	  0.201755	  0.099270	  0.066356	  0.288888	  0.484082	  0.463242	  0.281320	  0.049219	  0.358725	  0.226594	  0.489498	  0.527962	  1.162261	
2.5315	  0.458520	  0.541720	  0.054911	  0.202181	  0.098472	  0.066531	  0.289812	  0.485650	  0.465391	  0.284601	  0.049576	  0.356335	  0.227115	  0.486464	  0.526806	  1.157776	
2.532	  0.459119	  0.540240	  0.055067	  0.202616	  0.097701	  0.066700	  0.290797	  0.487234	  0.467567	  0.287886	  0.049929	  0.353919	  0.227637	  0.483408	  0.525646	  1.153107	
2.5325	  0.459641	  0.538690	  0.055222	  0.203059	  0.096956	  0.066866	  0.291843	  0.488833	  0.469769	  0.291174	  0.050278	  0.351480	  0.228159	  0.480332	  0.524483	  1.148258	
2.533	  0.460086	  0.537073	  0.055375	  0.203511	  0.096238	  0.067026	  0.292947	  0.490444	  0.471996	  0.294465	  0.050624	  0.349019	  0.228681	  0.477238	  0.523319	  1.143233	
2.5335	  0.460453	  0.535391	  0.055527	  0.203970	  0.095547	  0.067182	  0.294110	  0.492062	  0.474247	  0.297755	  0.050967	  0.346538	  0.229201	  0.474126	  0.522155	  1.138034	
